<?xml version="1.0" encoding="UTF-8" standalone="no"?>
<svg width="66px" height="72px" viewBox="0 0 66 72" version="1.1" xmlns="http://www.w3.org/2000/svg" xmlns:xlink="http://www.w3.org/1999/xlink" xmlns:sketch="http://www.bohemiancoding.com/sketch/ns">
    <!-- Generator: Sketch 3.3.2 (12043) - http://www.bohemiancoding.com/sketch -->
    <title>Icon</title>
    <desc>Created with Sketch.</desc>
    <defs></defs>
    <g id="Landing" stroke="none" stroke-width="1" fill="none" fill-rule="evenodd" sketch:type="MSPage">
        <g id="Desktop" sketch:type="MSArtboardGroup" transform="translate(-479.000000, -3495.000000)" stroke="#F09142" stroke-width="3" stroke-linecap="round" stroke-linejoin="round">
            <g id="Healthcare-Provider" sketch:type="MSLayerGroup" transform="translate(0.000000, 3407.000000)">
                <g id="Icon" transform="translate(481.000000, 89.500000)" sketch:type="MSShapeGroup">
                    <path d="M11.9230769,4.75862069 C11.9230769,7.38656897 9.78765385,9.51724138 7.15384615,9.51724138 L7.15384615,0 C9.78765385,0 11.9230769,2.13067241 11.9230769,4.75862069 L11.9230769,4.75862069 Z" id="Stroke-3660"></path>
                    <path d="M21.4615385,4.75862069 C21.4615385,2.13067241 23.5969615,0 26.2307692,0 L26.2307692,9.51724138 C23.5969615,9.51724138 21.4615385,7.38656897 21.4615385,4.75862069 L21.4615385,4.75862069 Z" id="Stroke-3661"></path>
                    <path d="M7.15384615,4.75862069 C3.20253846,4.75862069 0,7.95403448 0,11.8965517 L0,26.1724138 C0,35.3708276 7.47338462,42.8275862 16.6923077,42.8275862 C25.9112308,42.8275862 33.3846154,35.3708276 33.3846154,26.1724138 L33.3846154,11.8965517 C33.3846154,7.95403448 30.1820769,4.75862069 26.2307692,4.75862069" id="Stroke-3662"></path>
                    <path d="M16.6923077,42.8275862 L16.6923077,63.0517241 C16.6923077,66.3375517 19.3606923,69 22.6538462,69 C25.947,69 28.6153846,66.3375517 28.6153846,63.0517241 L28.6153846,49.9655172 C28.6153846,46.023 31.8191154,42.8275862 35.7692308,42.8275862 C39.7193462,42.8275862 42.9230769,46.023 42.9230769,49.9655172 L42.9230769,57.1034483 C42.9230769,60.3892759 45.5914615,63.0517241 48.8846154,63.0517241 C52.1777692,63.0517241 54.8461538,60.3892759 54.8461538,57.1034483 L54.8461538,35.6896552" id="Stroke-3663"></path>
                    <path d="M62,28.5517241 C62,32.4930517 58.7974615,35.6896552 54.8461538,35.6896552 C50.8948462,35.6896552 47.6923077,32.4930517 47.6923077,28.5517241 C47.6923077,24.6092069 50.8948462,21.4137931 54.8461538,21.4137931 C58.7974615,21.4137931 62,24.6092069 62,28.5517241 L62,28.5517241 Z" id="Stroke-3664"></path>
                </g>
            </g>
        </g>
    </g>
</svg>